<svg xmlns="http://www.w3.org/2000/svg" width="97" height="97" viewBox="0 0 97 97" fill="none">
  <path fill-rule="evenodd" clip-rule="evenodd" d="M88.9173 48.5C88.9173 70.8213 70.822 88.9166 48.5006 88.9166C26.1791 88.9166 8.08398 70.8213 8.08398 48.5C8.08398 26.1785 26.1791 8.08331 48.5006 8.08331C70.822 8.08331 88.9173 26.1785 88.9173 48.5ZM60.6256 36.375C60.6256 43.0716 55.1973 48.5 48.5006 48.5C41.804 48.5 36.3757 43.0716 36.3757 36.375C36.3757 29.6785 41.804 24.25 48.5006 24.25C55.1973 24.25 60.6256 29.6785 60.6256 36.375ZM48.5006 82.8541C55.711 82.8541 62.4028 80.6328 67.9285 76.8369C70.3693 75.1604 71.4121 71.9667 69.9934 69.3679C67.0519 63.9808 60.9902 60.625 48.5002 60.625C36.0106 60.625 29.9493 63.9804 27.0076 69.3679C25.5886 71.9667 26.6316 75.16 29.0722 76.8365C34.598 80.6324 41.2899 82.8541 48.5006 82.8541Z" fill="#76C56F"/>
</svg>