<svg xmlns="http://www.w3.org/2000/svg" width="42" height="42" viewBox="0 0 42 42" fill="none">
  <path d="M21 38.5C30.6649 38.5 38.5 30.6649 38.5 21C38.5 11.335 30.6649 3.5 21 3.5C11.335 3.5 3.5 11.335 3.5 21C3.5 23.7995 4.15733 26.4453 5.32605 28.7919C5.63664 29.4154 5.74002 30.1282 5.55996 30.801L4.51764 34.6967C4.06516 36.3877 5.61227 37.9348 7.30336 37.4824L11.1989 36.4401C11.8719 36.26 12.5846 36.3634 13.2082 36.6739C15.5546 37.8427 18.2005 38.5 21 38.5Z" fill="#76C56F"/>
  <path d="M26.25 21C26.25 21.9665 27.0335 22.75 28 22.75C28.9665 22.75 29.75 21.9665 29.75 21C29.75 20.0335 28.9665 19.25 28 19.25C27.0335 19.25 26.25 20.0335 26.25 21Z" fill="white"/>
  <path d="M19.25 21C19.25 21.9665 20.0335 22.75 21 22.75C21.9665 22.75 22.75 21.9665 22.75 21C22.75 20.0335 21.9665 19.25 21 19.25C20.0335 19.25 19.25 20.0335 19.25 21Z" fill="white"/>
  <path d="M12.25 21C12.25 21.9665 13.0335 22.75 14 22.75C14.9665 22.75 15.75 21.9665 15.75 21C15.75 20.0335 14.9665 19.25 14 19.25C13.0335 19.25 12.25 20.0335 12.25 21Z" fill="white"/>
</svg>