<svg xmlns="http://www.w3.org/2000/svg" width="49" height="49" viewBox="0 0 49 49" fill="none">
  <path fill-rule="evenodd" clip-rule="evenodd" d="M44.9173 24.5002C44.9173 35.7759 35.7764 44.9168 24.5007 44.9168C13.2248 44.9168 4.08398 35.7759 4.08398 24.5002C4.08398 13.2243 13.2248 4.0835 24.5007 4.0835C35.7764 4.0835 44.9173 13.2243 44.9173 24.5002ZM30.6257 18.3752C30.6257 21.758 27.8835 24.5002 24.5007 24.5002C21.1178 24.5002 18.3757 21.758 18.3757 18.3752C18.3757 14.9924 21.1178 12.2502 24.5007 12.2502C27.8835 12.2502 30.6257 14.9924 30.6257 18.3752ZM24.5007 41.8543C28.143 41.8543 31.5234 40.7322 34.3147 38.8147C35.5477 37.9678 36.0745 36.3545 35.3578 35.0417C33.8719 32.3204 30.8098 30.6252 24.5004 30.6252C18.1913 30.6252 15.1293 32.3202 13.6434 35.0417C12.9265 36.3545 13.4534 37.9676 14.6863 38.8145C17.4777 40.732 20.8581 41.8543 24.5007 41.8543Z" fill="#76C56F"/>
</svg>